<?xml version="1.0" standalone="no"?>
<!DOCTYPE svg PUBLIC "-//W3C//DTD SVG 20010904//EN"
 "http://www.w3.org/TR/2001/REC-SVG-20010904/DTD/svg10.dtd">
<svg version="1.0" xmlns="http://www.w3.org/2000/svg"
 width="700.000000pt" height="700.000000pt" viewBox="0 0 700.000000 700.000000"
 preserveAspectRatio="xMidYMid meet">
<metadata>
Created by potrace 1.11, written by Peter Selinger 2001-2013
</metadata>
<g transform="translate(0.000000,700.000000) scale(0.100000,-0.100000)"
fill="#000000" stroke="none">
<path d="M5977 6984 c-129 -28 -268 -104 -387 -214 -55 -50 -115 -80 -195 -95
-80 -15 -289 -11 -425 9 -19 3 -57 8 -85 11 -27 3 -63 8 -80 10 -16 2 -52 7
-80 10 -27 3 -59 8 -70 10 -11 2 -45 7 -76 10 -31 3 -66 7 -77 10 -11 2 -57 6
-102 10 -45 4 -91 8 -103 11 -134 25 -809 25 -907 -1 -8 -2 -40 -7 -70 -10
-47 -5 -117 -17 -240 -41 -89 -18 -274 -70 -380 -108 -286 -101 -484 -200
-741 -369 -111 -72 -140 -96 -153 -125 -9 -21 -14 -48 -10 -62 15 -65 16 -64
-33 -100 -26 -19 -75 -59 -109 -88 l-63 -53 -29 21 c-52 38 -134 24 -165 -29
-22 -38 -22 -93 2 -122 l19 -24 -94 -99 c-89 -94 -95 -99 -120 -88 -56 26
-114 9 -157 -45 -10 -13 -24 -29 -31 -36 -19 -19 -167 -215 -217 -287 -111
-158 -265 -440 -334 -610 -14 -36 -30 -74 -35 -85 -22 -45 -91 -268 -119 -380
-45 -183 -68 -318 -88 -510 -11 -108 -10 -587 1 -705 5 -52 10 -111 11 -130 3
-42 33 -286 39 -315 2 -11 7 -54 11 -95 4 -41 8 -77 10 -80 2 -3 6 -34 10 -70
4 -36 9 -76 11 -90 18 -128 23 -350 10 -430 -11 -66 -48 -138 -101 -195 -109
-117 -169 -230 -213 -395 -9 -34 -9 -212 0 -261 13 -73 54 -193 88 -254 27
-50 85 -140 105 -162 138 -153 261 -236 435 -291 281 -88 557 -22 770 186 51
50 133 91 200 100 100 14 288 7 455 -17 39 -5 95 -12 125 -16 30 -3 71 -8 90
-11 19 -2 53 -7 75 -10 22 -2 92 -11 155 -19 63 -8 138 -16 165 -19 28 -3 84
-9 125 -13 98 -9 589 -10 707 -1 529 43 1053 225 1518 526 107 70 342 245 411
307 645 579 1008 1107 1210 1760 19 61 36 119 39 130 2 11 16 71 29 133 25
112 28 130 42 227 3 28 8 57 9 66 20 111 28 640 12 809 -4 47 -10 110 -12 140
-3 30 -12 107 -20 170 -8 63 -17 135 -20 160 -3 25 -7 56 -10 70 -2 14 -7 54
-10 90 -4 36 -9 74 -11 84 -2 11 -6 42 -9 70 -4 28 -8 69 -11 91 -9 77 -10
290 -2 339 12 64 49 144 85 181 104 110 176 228 214 355 32 105 32 280 0 395
-87 311 -331 556 -643 646 -94 27 -257 33 -351 13z"/>
</g>
</svg>
